<svg width="109" height="52" viewBox="0 0 109 52" fill="none" xmlns="http://www.w3.org/2000/svg">
<path d="M48.1231 0.193237L62.8836 31.9451H55.971L47.0539 12.6466L37.3786 31.9451H30.3775L46.2957 0.193237H48.1231Z" fill="#2E2E2D"/>
<path d="M12.942 25.627H24.5779V31.9229H6.70076V0.215607H12.9428L12.942 25.627Z" fill="#2E2E2D"/>
<path d="M76.8851 17.4275L74.4789 19.9206V31.9211H68.2368V0.215485H74.4789V10.452L83.6191 0.215485H92.0459L81.1212 12.6259L92.3129 31.9244H84.8669L76.8851 17.4275Z" fill="#2E2E2D"/>
<path d="M99.0056 31.922V0.214691H105.248V31.922H99.0056Z" fill="#2E2E2D"/>
<path d="M52.0264 31.875L45.0163 16.7965L47.0531 12.6729L50.7997 5.97535L48.1207 0.217133H46.2941L37.8925 16.9516L41.4646 23.9931L41.4865 23.9485L45.1478 31.8708L52.0264 31.875Z" fill="url(#paint0_linear)"/>
<path d="M18.7432 48.0776H18.0645L16.5654 42.8872C16.5296 42.7635 16.5003 42.6446 16.4775 42.5307C16.458 42.4168 16.4466 42.3061 16.4434 42.1987H16.4238C16.4108 42.3875 16.3636 42.6137 16.2822 42.8774L14.7295 48.0776H14.0508L11.9854 41.0756H12.708L14.251 46.5688C14.2868 46.6892 14.3145 46.8048 14.334 46.9155C14.3568 47.0229 14.3747 47.1271 14.3877 47.228H14.4072C14.4268 47.0815 14.4805 46.8618 14.5684 46.5688L16.209 41.0756H16.7217L18.2598 46.5883C18.2891 46.699 18.3151 46.8081 18.3379 46.9155C18.3607 47.0196 18.3786 47.1222 18.3916 47.2231H18.4111C18.4176 47.158 18.4307 47.0848 18.4502 47.0034C18.4697 46.922 18.4925 46.8308 18.5186 46.7299L20.0518 41.0756H20.7598L18.7432 48.0776ZM21.8096 45.6899C21.8128 45.9959 21.8535 46.271 21.9316 46.5151C22.0098 46.7592 22.1221 46.9659 22.2686 47.1352C22.415 47.3045 22.5924 47.4347 22.8008 47.5258C23.0124 47.6137 23.25 47.6577 23.5137 47.6577C24.0768 47.6577 24.609 47.4607 25.1104 47.0668V47.6821C24.6318 48.0239 24.0524 48.1948 23.3721 48.1948C23.0368 48.1948 22.7324 48.1362 22.459 48.019C22.1855 47.9018 21.9528 47.7325 21.7607 47.5112C21.5687 47.2866 21.4206 47.0115 21.3164 46.686C21.2122 46.3605 21.1602 45.9894 21.1602 45.5727C21.1602 45.1984 21.2171 44.8517 21.3311 44.5327C21.445 44.2137 21.6029 43.9386 21.8047 43.7075C22.0065 43.4731 22.2458 43.2908 22.5225 43.1606C22.7992 43.0271 23.1019 42.9604 23.4307 42.9604C23.7529 42.9604 24.0378 43.0174 24.2852 43.1313C24.5326 43.242 24.7393 43.4015 24.9053 43.6098C25.0745 43.8182 25.2031 44.0721 25.291 44.3715C25.3789 44.671 25.4229 45.0063 25.4229 45.3774V45.6899H21.8096ZM24.7783 45.143C24.7686 44.6222 24.6449 44.2185 24.4072 43.9321C24.1696 43.6456 23.8392 43.5024 23.416 43.5024C23.2044 43.5024 23.0075 43.5398 22.8252 43.6147C22.6462 43.6896 22.4883 43.7986 22.3516 43.9418C22.2148 44.0818 22.1009 44.2543 22.0098 44.4594C21.9219 44.6612 21.86 44.8891 21.8242 45.143H24.7783ZM32.2734 48.0776V47.1889H32.2539C32.0911 47.5079 31.8682 47.7553 31.585 47.9311C31.305 48.1069 30.9876 48.1948 30.6328 48.1948C30.3919 48.1948 30.1738 48.1606 29.9785 48.0922C29.7865 48.0239 29.6221 47.9279 29.4854 47.8042C29.3519 47.6772 29.2477 47.5258 29.1729 47.3501C29.1012 47.1743 29.0654 46.9806 29.0654 46.769C29.0654 46.3165 29.2054 45.9568 29.4854 45.6899C29.7653 45.4197 30.1885 45.2439 30.7549 45.1626L32.2734 44.9428C32.2734 43.9825 31.9007 43.5024 31.1553 43.5024C30.5726 43.5024 30.0322 43.7156 29.5342 44.142V43.4585C29.6383 43.3836 29.7555 43.3168 29.8857 43.2583C30.0192 43.1964 30.1592 43.1443 30.3057 43.102C30.4521 43.0564 30.6019 43.0223 30.7549 42.9995C30.9111 42.9734 31.0625 42.9604 31.209 42.9604C31.7656 42.9604 32.1855 43.1167 32.4688 43.4292C32.7552 43.7417 32.8984 44.2071 32.8984 44.8256V48.0776H32.2734ZM30.9844 45.6508C30.7598 45.6834 30.5677 45.7241 30.4082 45.7729C30.2487 45.8217 30.1169 45.8885 30.0127 45.9731C29.9085 46.0545 29.832 46.157 29.7832 46.2807C29.7344 46.4012 29.71 46.5509 29.71 46.7299C29.71 46.8634 29.7327 46.9871 29.7783 47.101C29.8271 47.215 29.8955 47.3142 29.9834 47.3989C30.0745 47.4803 30.1836 47.5437 30.3105 47.5893C30.4408 47.6349 30.5872 47.6577 30.75 47.6577C30.9714 47.6577 31.1748 47.6154 31.3604 47.5307C31.5459 47.4461 31.7054 47.3289 31.8389 47.1792C31.9756 47.0294 32.0814 46.8504 32.1562 46.642C32.2344 46.4337 32.2734 46.2075 32.2734 45.9633V45.4702L30.9844 45.6508ZM36.8828 43.7172C36.7363 43.6098 36.5475 43.5561 36.3164 43.5561C36.1504 43.5561 36.0039 43.5887 35.877 43.6538C35.75 43.7156 35.6377 43.8002 35.54 43.9077C35.4456 44.0151 35.3643 44.1404 35.2959 44.2836C35.2308 44.4236 35.1771 44.5701 35.1348 44.7231C35.0957 44.8761 35.0664 45.0307 35.0469 45.187C35.0306 45.3432 35.0225 45.4913 35.0225 45.6313V48.0776H34.4023V43.0776H35.0225V44.1469H35.042C35.1006 43.9646 35.1738 43.8019 35.2617 43.6586C35.3529 43.5122 35.457 43.3901 35.5742 43.2924C35.6914 43.1915 35.8184 43.115 35.9551 43.0629C36.0951 43.0109 36.2415 42.9848 36.3945 42.9848C36.4954 42.9848 36.585 42.9913 36.6631 43.0043C36.7445 43.0174 36.8177 43.0369 36.8828 43.0629V43.7172ZM37.9521 45.6899C37.9554 45.9959 37.9961 46.271 38.0742 46.5151C38.1523 46.7592 38.2646 46.9659 38.4111 47.1352C38.5576 47.3045 38.735 47.4347 38.9434 47.5258C39.1549 47.6137 39.3926 47.6577 39.6562 47.6577C40.2194 47.6577 40.7516 47.4607 41.2529 47.0668V47.6821C40.7744 48.0239 40.195 48.1948 39.5146 48.1948C39.1794 48.1948 38.875 48.1362 38.6016 48.019C38.3281 47.9018 38.0954 47.7325 37.9033 47.5112C37.7113 47.2866 37.5632 47.0115 37.459 46.686C37.3548 46.3605 37.3027 45.9894 37.3027 45.5727C37.3027 45.1984 37.3597 44.8517 37.4736 44.5327C37.5876 44.2137 37.7454 43.9386 37.9473 43.7075C38.1491 43.4731 38.3883 43.2908 38.665 43.1606C38.9417 43.0271 39.2445 42.9604 39.5732 42.9604C39.8955 42.9604 40.1803 43.0174 40.4277 43.1313C40.6751 43.242 40.8818 43.4015 41.0479 43.6098C41.2171 43.8182 41.3457 44.0721 41.4336 44.3715C41.5215 44.671 41.5654 45.0063 41.5654 45.3774V45.6899H37.9521ZM40.9209 45.143C40.9111 44.6222 40.7874 44.2185 40.5498 43.9321C40.3122 43.6456 39.9818 43.5024 39.5586 43.5024C39.347 43.5024 39.1501 43.5398 38.9678 43.6147C38.7887 43.6896 38.6309 43.7986 38.4941 43.9418C38.3574 44.0818 38.2435 44.2543 38.1523 44.4594C38.0645 44.6612 38.0026 44.8891 37.9668 45.143H40.9209ZM48.9092 48.0776V45.1381C48.9092 44.5782 48.8083 44.1665 48.6064 43.9028C48.4046 43.6359 48.0905 43.5024 47.6641 43.5024C47.4622 43.5024 47.2702 43.5431 47.0879 43.6245C46.9056 43.7058 46.7461 43.823 46.6094 43.976C46.4727 44.129 46.3636 44.3162 46.2822 44.5376C46.2008 44.7557 46.1602 45.003 46.1602 45.2797V48.0776H45.5352V40.6752H46.1602V43.9418H46.1797C46.5703 43.2876 47.1302 42.9604 47.8594 42.9604C48.416 42.9604 48.8343 43.1313 49.1143 43.4731C49.3942 43.8149 49.5342 44.3195 49.5342 44.9868V48.0776H48.9092ZM51.3408 45.6899C51.3441 45.9959 51.3848 46.271 51.4629 46.5151C51.541 46.7592 51.6533 46.9659 51.7998 47.1352C51.9463 47.3045 52.1237 47.4347 52.332 47.5258C52.5436 47.6137 52.7812 47.6577 53.0449 47.6577C53.6081 47.6577 54.1403 47.4607 54.6416 47.0668V47.6821C54.1631 48.0239 53.5837 48.1948 52.9033 48.1948C52.568 48.1948 52.2637 48.1362 51.9902 48.019C51.7168 47.9018 51.484 47.7325 51.292 47.5112C51.0999 47.2866 50.9518 47.0115 50.8477 46.686C50.7435 46.3605 50.6914 45.9894 50.6914 45.5727C50.6914 45.1984 50.7484 44.8517 50.8623 44.5327C50.9762 44.2137 51.1341 43.9386 51.3359 43.7075C51.5378 43.4731 51.777 43.2908 52.0537 43.1606C52.3304 43.0271 52.6331 42.9604 52.9619 42.9604C53.2842 42.9604 53.569 43.0174 53.8164 43.1313C54.0638 43.242 54.2705 43.4015 54.4365 43.6098C54.6058 43.8182 54.7344 44.0721 54.8223 44.3715C54.9102 44.671 54.9541 45.0063 54.9541 45.3774V45.6899H51.3408ZM54.3096 45.143C54.2998 44.6222 54.1761 44.2185 53.9385 43.9321C53.7008 43.6456 53.3704 43.5024 52.9473 43.5024C52.7357 43.5024 52.5387 43.5398 52.3564 43.6147C52.1774 43.6896 52.0195 43.7986 51.8828 43.9418C51.7461 44.0818 51.6322 44.2543 51.541 44.4594C51.4531 44.6612 51.3913 44.8891 51.3555 45.143H54.3096ZM58.6602 43.7172C58.5137 43.6098 58.3249 43.5561 58.0938 43.5561C57.9277 43.5561 57.7812 43.5887 57.6543 43.6538C57.5273 43.7156 57.415 43.8002 57.3174 43.9077C57.223 44.0151 57.1416 44.1404 57.0732 44.2836C57.0081 44.4236 56.9544 44.5701 56.9121 44.7231C56.873 44.8761 56.8438 45.0307 56.8242 45.187C56.8079 45.3432 56.7998 45.4913 56.7998 45.6313V48.0776H56.1797V43.0776H56.7998V44.1469H56.8193C56.8779 43.9646 56.9512 43.8019 57.0391 43.6586C57.1302 43.5122 57.2344 43.3901 57.3516 43.2924C57.4688 43.1915 57.5957 43.115 57.7324 43.0629C57.8724 43.0109 58.0189 42.9848 58.1719 42.9848C58.2728 42.9848 58.3623 42.9913 58.4404 43.0043C58.5218 43.0174 58.5951 43.0369 58.6602 43.0629V43.7172ZM59.7295 45.6899C59.7327 45.9959 59.7734 46.271 59.8516 46.5151C59.9297 46.7592 60.042 46.9659 60.1885 47.1352C60.335 47.3045 60.5124 47.4347 60.7207 47.5258C60.9323 47.6137 61.1699 47.6577 61.4336 47.6577C61.9967 47.6577 62.529 47.4607 63.0303 47.0668V47.6821C62.5518 48.0239 61.9723 48.1948 61.292 48.1948C60.9567 48.1948 60.6523 48.1362 60.3789 48.019C60.1055 47.9018 59.8727 47.7325 59.6807 47.5112C59.4886 47.2866 59.3405 47.0115 59.2363 46.686C59.1322 46.3605 59.0801 45.9894 59.0801 45.5727C59.0801 45.1984 59.137 44.8517 59.251 44.5327C59.3649 44.2137 59.5228 43.9386 59.7246 43.7075C59.9264 43.4731 60.1657 43.2908 60.4424 43.1606C60.7191 43.0271 61.0218 42.9604 61.3506 42.9604C61.6729 42.9604 61.9577 43.0174 62.2051 43.1313C62.4525 43.242 62.6592 43.4015 62.8252 43.6098C62.9945 43.8182 63.123 44.0721 63.2109 44.3715C63.2988 44.671 63.3428 45.0063 63.3428 45.3774V45.6899H59.7295ZM62.6982 45.143C62.6885 44.6222 62.5648 44.2185 62.3271 43.9321C62.0895 43.6456 61.7591 43.5024 61.3359 43.5024C61.1243 43.5024 60.9274 43.5398 60.7451 43.6147C60.5661 43.6896 60.4082 43.7986 60.2715 43.9418C60.1348 44.0818 60.0208 44.2543 59.9297 44.4594C59.8418 44.6612 59.7799 44.8891 59.7441 45.143H62.6982ZM69.6416 41.2661C69.5016 41.1749 69.321 41.1293 69.0996 41.1293C68.5137 41.1293 68.2207 41.5118 68.2207 42.2768V43.0776H69.4658V43.6245H68.2207V48.0776H67.5957V43.6245H66.7217V43.0776H67.5957V42.2377C67.5957 41.9871 67.6266 41.7609 67.6885 41.559C67.7536 41.354 67.848 41.1798 67.9717 41.0366C68.0954 40.8901 68.25 40.7778 68.4355 40.6997C68.6243 40.6215 68.8408 40.5825 69.085 40.5825C69.3193 40.5825 69.5049 40.6134 69.6416 40.6752V41.2661ZM72.3076 48.1948C71.9365 48.1948 71.6029 48.1329 71.3066 48.0092C71.0137 47.8855 70.763 47.7114 70.5547 47.4868C70.3464 47.2589 70.1868 46.9871 70.0762 46.6713C69.9655 46.3556 69.9102 46.0057 69.9102 45.6215C69.9102 45.2049 69.9688 44.8321 70.0859 44.5034C70.2031 44.1746 70.3691 43.8963 70.584 43.6684C70.8021 43.4373 71.0641 43.2615 71.3701 43.1411C71.6761 43.0206 72.0179 42.9604 72.3955 42.9604C72.7568 42.9604 73.0824 43.0206 73.3721 43.1411C73.6618 43.2583 73.9076 43.4292 74.1094 43.6538C74.3112 43.8784 74.4658 44.1518 74.5732 44.4741C74.6807 44.7963 74.7344 45.1626 74.7344 45.5727C74.7344 45.9633 74.6774 46.3198 74.5635 46.642C74.4528 46.9611 74.2933 47.2361 74.085 47.4672C73.8766 47.6984 73.6227 47.8774 73.3232 48.0043C73.0238 48.1313 72.6852 48.1948 72.3076 48.1948ZM72.3564 43.5024C72.083 43.5024 71.8356 43.5496 71.6143 43.644C71.3929 43.7384 71.2025 43.8767 71.043 44.059C70.8867 44.2381 70.7663 44.4594 70.6816 44.7231C70.597 44.9835 70.5547 45.2797 70.5547 45.6118C70.5547 45.9243 70.597 46.2058 70.6816 46.4565C70.7663 46.7071 70.8851 46.922 71.0381 47.101C71.1943 47.2801 71.3831 47.4184 71.6045 47.5161C71.8258 47.6105 72.0732 47.6577 72.3467 47.6577C72.6266 47.6577 72.874 47.6121 73.0889 47.521C73.3037 47.4265 73.486 47.2915 73.6357 47.1157C73.7855 46.9366 73.8978 46.7185 73.9727 46.4614C74.0508 46.2042 74.0898 45.9112 74.0898 45.5825C74.0898 44.9086 73.9401 44.3943 73.6406 44.0395C73.3411 43.6814 72.9131 43.5024 72.3564 43.5024ZM78.4746 43.7172C78.3281 43.6098 78.1393 43.5561 77.9082 43.5561C77.7422 43.5561 77.5957 43.5887 77.4688 43.6538C77.3418 43.7156 77.2295 43.8002 77.1318 43.9077C77.0374 44.0151 76.9561 44.1404 76.8877 44.2836C76.8226 44.4236 76.7689 44.5701 76.7266 44.7231C76.6875 44.8761 76.6582 45.0307 76.6387 45.187C76.6224 45.3432 76.6143 45.4913 76.6143 45.6313V48.0776H75.9941V43.0776H76.6143V44.1469H76.6338C76.6924 43.9646 76.7656 43.8019 76.8535 43.6586C76.9447 43.5122 77.0488 43.3901 77.166 43.2924C77.2832 43.1915 77.4102 43.115 77.5469 43.0629C77.6868 43.0109 77.8333 42.9848 77.9863 42.9848C78.0872 42.9848 78.1768 42.9913 78.2549 43.0043C78.3363 43.0174 78.4095 43.0369 78.4746 43.0629V43.7172ZM83.5771 48.9858C83.3818 49.4741 83.1572 49.8354 82.9033 50.0698C82.6494 50.3074 82.3418 50.4262 81.9805 50.4262C81.8014 50.4262 81.6501 50.4051 81.5264 50.3627V49.7768C81.598 49.8029 81.6696 49.8224 81.7412 49.8354C81.8161 49.8484 81.891 49.8549 81.9658 49.8549C82.1709 49.8549 82.3483 49.7898 82.498 49.6596C82.651 49.5327 82.7829 49.339 82.8936 49.0786L83.3281 48.0532L81.4043 43.0776H82.0977L83.5283 47.0376C83.5479 47.0896 83.5658 47.1499 83.582 47.2182C83.6016 47.2833 83.6195 47.3484 83.6357 47.4135H83.6602C83.6764 47.3582 83.6911 47.3029 83.7041 47.2475C83.7204 47.1889 83.7415 47.1254 83.7676 47.0571L85.2861 43.0776H85.9453L83.5771 48.9858ZM88.8115 48.1948C88.4404 48.1948 88.1068 48.1329 87.8105 48.0092C87.5176 47.8855 87.2669 47.7114 87.0586 47.4868C86.8503 47.2589 86.6908 46.9871 86.5801 46.6713C86.4694 46.3556 86.4141 46.0057 86.4141 45.6215C86.4141 45.2049 86.4727 44.8321 86.5898 44.5034C86.707 44.1746 86.873 43.8963 87.0879 43.6684C87.306 43.4373 87.568 43.2615 87.874 43.1411C88.18 43.0206 88.5218 42.9604 88.8994 42.9604C89.2607 42.9604 89.5863 43.0206 89.876 43.1411C90.1657 43.2583 90.4115 43.4292 90.6133 43.6538C90.8151 43.8784 90.9697 44.1518 91.0771 44.4741C91.1846 44.7963 91.2383 45.1626 91.2383 45.5727C91.2383 45.9633 91.1813 46.3198 91.0674 46.642C90.9567 46.9611 90.7972 47.2361 90.5889 47.4672C90.3805 47.6984 90.1266 47.8774 89.8271 48.0043C89.5277 48.1313 89.1891 48.1948 88.8115 48.1948ZM88.8604 43.5024C88.5869 43.5024 88.3395 43.5496 88.1182 43.644C87.8968 43.7384 87.7064 43.8767 87.5469 44.059C87.3906 44.2381 87.2702 44.4594 87.1855 44.7231C87.1009 44.9835 87.0586 45.2797 87.0586 45.6118C87.0586 45.9243 87.1009 46.2058 87.1855 46.4565C87.2702 46.7071 87.389 46.922 87.542 47.101C87.6982 47.2801 87.887 47.4184 88.1084 47.5161C88.3298 47.6105 88.5771 47.6577 88.8506 47.6577C89.1305 47.6577 89.3779 47.6121 89.5928 47.521C89.8076 47.4265 89.9899 47.2915 90.1396 47.1157C90.2894 46.9366 90.4017 46.7185 90.4766 46.4614C90.5547 46.2042 90.5938 45.9112 90.5938 45.5825C90.5938 44.9086 90.444 44.3943 90.1445 44.0395C89.8451 43.6814 89.417 43.5024 88.8604 43.5024ZM95.7695 48.0776V47.228H95.75C95.4115 47.8725 94.8857 48.1948 94.1729 48.1948C92.9847 48.1948 92.3906 47.4689 92.3906 46.017V43.0776H93.0156V45.8999C93.0156 46.4988 93.1214 46.9415 93.333 47.228C93.5479 47.5144 93.875 47.6577 94.3145 47.6577C94.5293 47.6577 94.7246 47.617 94.9004 47.5356C95.0794 47.451 95.2324 47.3338 95.3594 47.184C95.4896 47.031 95.5905 46.8487 95.6621 46.6372C95.7337 46.4256 95.7695 46.1912 95.7695 45.934V43.0776H96.3945V48.0776H95.7695Z" fill="#707070"/>
<defs>
<linearGradient id="paint0_linear" x1="44.9594" y1="0.217133" x2="44.9594" y2="31.875" gradientUnits="userSpaceOnUse">
<stop stop-color="#9B3018"/>
<stop offset="1" stop-color="#C89898"/>
</linearGradient>
</defs>
</svg>
