<?xml version="1.0" standalone="no"?>
<!DOCTYPE svg PUBLIC "-//W3C//DTD SVG 20010904//EN"
 "http://www.w3.org/TR/2001/REC-SVG-20010904/DTD/svg10.dtd">
<svg version="1.0" xmlns="http://www.w3.org/2000/svg"
 width="512.000000pt" height="512.000000pt" viewBox="0 0 512.000000 512.000000"
 preserveAspectRatio="xMidYMid meet">
<metadata>
Created by potrace 1.11, written by Peter Selinger 2001-2013
</metadata>
<g transform="translate(0.000000,512.000000) scale(0.100000,-0.100000)"
fill="#000000" stroke="none">
<path d="M2379 5116 c-2 -2 -35 -6 -74 -10 -38 -3 -81 -8 -95 -11 -13 -2 -42
-7 -65 -11 -22 -3 -60 -10 -85 -16 -25 -5 -55 -12 -66 -14 -12 -2 -61 -15
-109 -29 -580 -168 -1078 -546 -1397 -1060 -149 -241 -254 -500 -314 -779 -17
-79 -19 -87 -29 -171 -4 -33 -9 -69 -11 -80 -2 -11 -4 -42 -5 -70 -1 -27 -5
-57 -10 -66 -4 -8 -4 -21 1 -29 4 -7 5 -23 0 -35 -4 -11 -4 -28 1 -37 6 -11 5
-19 -1 -23 -7 -4 -7 -12 -2 -18 10 -14 10 -27 -2 -46 -5 -7 -5 -16 0 -20 15
-10 15 -32 2 -49 -7 -9 -8 -13 -2 -9 7 4 12 -9 13 -36 1 -23 4 -60 6 -82 3
-22 7 -62 9 -90 2 -27 7 -58 11 -67 4 -9 4 -22 0 -28 -3 -5 -1 -10 4 -10 6 0
11 -12 11 -27 0 -16 4 -35 10 -43 6 -9 5 -20 -3 -29 -10 -12 -9 -13 2 -6 11 6
13 2 9 -18 -3 -17 -1 -24 5 -20 6 4 8 0 4 -10 -3 -10 -3 -17 1 -17 7 0 12 -19
15 -62 1 -9 5 -14 9 -12 13 8 9 -21 -4 -35 -11 -10 -9 -11 6 -5 16 6 18 4 14
-14 -4 -12 -2 -20 3 -16 9 5 13 -17 10 -45 -2 -8 2 -10 10 -6 8 6 10 1 7 -18
-3 -15 -1 -25 6 -24 5 1 10 -2 11 -8 0 -5 6 -20 13 -33 7 -12 10 -26 7 -31 -3
-5 2 -16 10 -24 8 -9 15 -22 15 -30 0 -9 6 -18 13 -21 9 -5 9 -7 0 -12 -19 -9
-16 -24 4 -17 11 4 14 3 9 -5 -4 -7 -3 -12 1 -12 5 0 17 -20 28 -45 11 -25 24
-45 29 -45 4 0 6 -7 2 -15 -3 -8 -2 -15 2 -15 4 0 18 -21 32 -48 13 -26 27
-49 30 -52 13 -11 49 -67 52 -81 2 -8 10 -19 18 -26 8 -7 11 -13 7 -13 -5 0 6
-12 23 -27 21 -17 30 -32 27 -44 -3 -10 -2 -17 2 -16 3 1 21 -11 38 -27 27
-24 31 -32 20 -44 -8 -11 -8 -13 0 -9 13 8 83 -50 83 -70 0 -7 5 -13 10 -13 6
0 10 -9 10 -20 0 -11 5 -20 11 -20 5 0 7 6 3 12 -5 8 -1 7 10 -2 17 -13 17
-14 -1 -21 -14 -6 -13 -8 9 -8 28 -1 62 -37 51 -54 -4 -6 -1 -7 6 -2 8 4 29
-9 56 -38 24 -24 47 -42 50 -39 5 5 9 -14 6 -31 -1 -5 3 -6 9 -2 5 3 15 3 22
-1 8 -5 6 -10 -8 -16 -14 -6 -12 -7 8 -3 32 6 36 -2 11 -22 -16 -13 -16 -13 5
-3 24 12 46 5 36 -11 -3 -5 -10 -6 -16 -3 -7 4 -8 2 -4 -4 5 -8 13 -9 25 -2
15 7 25 3 50 -20 17 -17 31 -27 31 -24 0 4 7 1 15 -6 9 -7 13 -15 10 -18 -7
-7 15 -32 28 -32 6 0 2 7 -9 15 -10 8 -14 14 -9 14 16 0 45 -25 38 -32 -3 -4
3 -7 15 -7 12 0 22 -5 22 -11 0 -5 4 -8 9 -5 11 7 35 -20 27 -32 -3 -5 1 -9 9
-9 8 0 12 5 8 10 -3 5 13 -1 35 -14 22 -13 38 -27 35 -32 -3 -5 4 -6 15 -3 11
4 23 2 26 -3 6 -9 91 -52 164 -82 17 -8 32 -18 32 -22 0 -5 -4 -6 -8 -3 -5 3
-9 -1 -9 -9 0 -20 13 -19 21 1 4 9 11 12 18 7 7 -4 19 -8 26 -9 27 -4 43 -14
38 -22 -3 -5 6 -7 21 -4 18 3 24 1 19 -7 -4 -6 -12 -9 -17 -6 -5 3 -6 -1 -2
-10 4 -12 8 -13 13 -5 5 7 13 9 20 5 8 -5 11 -4 7 3 -5 6 0 8 13 5 11 -3 20
-10 20 -15 0 -5 -5 -6 -12 -2 -7 4 -8 3 -4 -5 5 -8 12 -9 20 -2 13 11 99 -6
91 -19 -2 -4 7 -5 20 -2 15 2 25 0 25 -7 0 -7 10 -10 25 -7 17 3 23 1 19 -6
-5 -7 -1 -9 9 -5 10 3 24 4 32 1 13 -5 13 -9 3 -23 -8 -11 -5 -10 10 3 18 15
22 16 22 4 0 -8 7 -15 15 -15 11 0 12 4 3 14 -8 11 -7 12 6 7 9 -3 16 -11 16
-18 0 -7 3 -6 9 2 6 11 9 9 13 -6 4 -13 14 -19 32 -19 14 -1 28 3 31 7 2 4 -9
6 -25 4 -17 -2 -30 0 -30 4 0 5 15 7 33 6 17 -1 41 -3 52 -3 27 -2 51 -18 42
-28 -5 -4 -12 -1 -17 7 -6 9 -10 10 -10 3 0 -23 23 -26 41 -4 l18 21 14 -21
c13 -17 16 -18 19 -5 3 14 6 14 31 1 15 -8 25 -10 22 -5 -4 6 1 10 9 10 19 0
19 -4 5 -33 -9 -19 -7 -18 10 3 13 16 30 25 50 26 16 0 28 -2 26 -6 -2 -3 6
-12 18 -20 20 -12 21 -12 8 3 -9 11 -10 17 -2 17 21 0 26 -4 23 -20 -1 -8 4
-4 11 9 10 17 16 20 19 10 4 -12 8 -12 23 1 15 12 17 12 10 1 -6 -11 -4 -13
11 -7 35 14 64 14 64 -1 0 -8 -4 -11 -10 -8 -5 3 -10 2 -10 -3 0 -6 11 -9 24
-8 16 0 21 5 15 11 -16 16 -10 22 24 21 17 -1 37 -7 43 -15 9 -11 12 -12 19
-1 5 9 4 11 -3 6 -7 -4 -12 -2 -12 3 0 6 7 11 15 11 8 0 15 -6 15 -12 0 -10 2
-10 8 -1 4 7 27 15 50 18 41 5 42 4 31 -18 -8 -16 -4 -14 16 8 19 22 25 25 20
10 -3 -11 -3 -16 1 -12 4 4 13 -1 21 -11 13 -15 13 -14 3 6 -13 27 -4 45 10
22 8 -13 14 -8 12 10 0 4 9 6 21 7 12 1 39 4 60 7 24 4 36 2 32 -4 -3 -5 -1
-10 4 -10 6 0 11 6 11 13 0 8 6 14 13 15 19 1 56 10 66 16 5 3 14 -1 21 -9 13
-15 5 -20 -27 -16 -6 1 -14 -2 -17 -7 -6 -10 37 -8 54 3 8 5 8 11 1 19 -16 19
-1 28 16 11 8 -8 19 -15 26 -15 6 0 2 7 -9 15 -10 8 -14 14 -9 13 6 -1 20 3
33 10 12 7 22 10 22 8 0 -3 12 -1 26 4 19 8 24 7 19 -3 -4 -6 1 -3 9 7 13 16
20 17 39 9 19 -9 24 -8 24 3 0 7 -5 10 -10 7 -6 -4 -7 -1 -3 6 5 7 14 10 20 8
7 -3 19 -1 26 3 8 5 23 4 34 -2 20 -11 20 -10 6 7 -8 10 -10 16 -3 12 6 -4 13
-2 15 5 3 7 13 2 27 -13 l23 -24 -12 23 c-6 13 -10 24 -8 25 2 1 17 10 34 19
24 14 34 15 44 5 8 -8 11 -8 7 -1 -4 7 0 17 8 24 8 7 15 9 15 5 0 -4 8 -1 17
6 11 10 14 10 9 2 -12 -21 1 -15 29 13 14 14 30 22 35 19 6 -3 10 -2 10 4 0 6
7 7 17 4 10 -4 14 -2 9 5 -3 6 -2 13 4 17 5 3 10 1 10 -4 0 -6 4 -11 10 -11 5
0 6 7 3 17 -4 11 -3 14 5 9 7 -4 12 -2 12 4 0 7 7 9 17 6 10 -4 14 -4 10 0 -3
4 19 24 51 44 45 30 60 35 71 26 12 -8 13 -8 7 2 -4 6 -2 12 3 12 6 0 10 5 8
12 -1 6 17 21 40 33 24 12 41 25 38 28 -3 4 -2 5 1 2 4 -2 14 4 23 13 9 10 12
13 8 6 -5 -7 -3 -15 4 -20 8 -4 9 -3 5 4 -4 7 -2 12 3 12 6 0 11 7 11 15 0 18
17 20 23 2 2 -6 3 -4 1 6 -2 18 17 40 70 80 15 12 36 30 44 40 9 9 22 17 29
17 7 0 12 4 10 9 -3 12 119 132 127 124 3 -4 6 2 6 12 0 10 17 35 39 56 21 21
36 41 32 45 -3 4 2 4 11 1 12 -4 15 -2 11 8 -3 8 2 18 11 21 9 3 14 10 11 15
-6 9 29 31 39 24 3 -3 2 1 -4 7 -8 9 -4 18 12 31 13 10 17 15 9 11 -10 -5 -12
-3 -7 5 5 7 14 10 21 7 9 -3 11 2 7 16 -4 17 -2 20 13 14 16 -6 16 -4 4 10
-12 15 -11 16 11 10 17 -5 21 -4 11 2 -15 11 -6 36 10 27 5 -3 6 2 2 11 -4 11
-2 15 4 11 6 -4 10 1 9 11 0 9 4 16 10 15 7 -1 11 5 10 15 0 9 4 17 11 17 6 0
15 4 20 9 5 5 3 6 -4 2 -8 -4 -13 -1 -13 9 0 9 4 13 10 10 6 -3 7 1 4 9 -3 9
-1 16 6 16 6 0 9 4 5 9 -3 5 4 16 15 24 12 8 20 18 19 23 -4 22 2 33 21 39 11
3 20 11 20 17 0 6 -6 5 -16 -2 -13 -12 -14 -10 -3 13 7 15 16 24 22 20 5 -3 7
0 5 8 -3 8 2 28 10 44 17 31 19 36 21 58 1 8 4 8 12 -3 8 -12 9 -11 4 6 -7 28
15 80 26 62 5 -8 7 1 4 20 -2 17 1 32 6 32 6 0 8 4 5 8 -3 5 1 20 9 35 8 15
12 27 10 27 -9 0 36 124 47 131 8 5 9 9 2 9 -7 0 -9 10 -6 25 2 14 7 23 11 21
3 -2 7 17 8 42 1 25 8 49 15 54 11 6 11 8 0 8 -7 0 -10 5 -6 12 4 6 9 23 11
37 7 46 13 95 17 131 2 19 4 37 6 40 1 3 2 29 2 58 0 28 4 52 9 52 6 0 7 6 2
12 -8 15 -9 101 0 115 4 6 3 13 0 17 -11 10 -9 90 1 98 6 4 6 12 -1 20 -6 7
-10 20 -10 28 0 23 -13 166 -18 188 -2 11 -6 35 -9 53 -7 45 -35 177 -41 199
-1 3 -5 19 -9 35 -15 55 -68 220 -75 230 -4 6 -13 28 -20 50 -22 66 -124 265
-192 374 -309 495 -770 855 -1326 1035 -60 19 -120 37 -134 40 -13 2 -53 11
-89 20 -136 32 -288 48 -491 51 -114 2 -208 2 -210 1z"/>
<path d="M355 1580 c3 -5 8 -10 11 -10 2 0 4 5 4 10 0 6 -5 10 -11 10 -5 0 -7
-4 -4 -10z"/>
<path d="M376 1543 c-6 -14 -5 -15 5 -6 7 7 10 15 7 18 -3 3 -9 -2 -12 -12z"/>
<path d="M430 1441 c0 -6 4 -13 10 -16 6 -3 7 1 4 9 -7 18 -14 21 -14 7z"/>
<path d="M556 1247 c3 -10 9 -15 12 -12 3 3 0 11 -7 18 -10 9 -11 8 -5 -6z"/>
<path d="M646 1142 c-3 -5 1 -9 9 -9 8 0 12 4 9 9 -3 4 -7 8 -9 8 -2 0 -6 -4
-9 -8z"/>
<path d="M4438 1103 c7 -3 16 -2 19 1 4 3 -2 6 -13 5 -11 0 -14 -3 -6 -6z"/>
<path d="M4415 1080 c3 -5 8 -10 11 -10 2 0 4 5 4 10 0 6 -5 10 -11 10 -5 0
-7 -4 -4 -10z"/>
<path d="M722 1056 c7 -8 15 -12 17 -11 5 6 -10 25 -20 25 -5 0 -4 -6 3 -14z"/>
<path d="M4395 1060 c-3 -5 -1 -10 4 -10 6 0 11 5 11 10 0 6 -2 10 -4 10 -3 0
-8 -4 -11 -10z"/>
<path d="M4335 980 c-3 -6 1 -7 9 -4 18 7 21 14 7 14 -6 0 -13 -4 -16 -10z"/>
<path d="M4305 971 c-3 -5 -2 -12 3 -15 5 -3 9 1 9 9 0 17 -3 19 -12 6z"/>
<path d="M810 956 c0 -2 7 -7 16 -10 8 -3 12 -2 9 4 -6 10 -25 14 -25 6z"/>
<path d="M4255 920 c-3 -5 -1 -10 4 -10 6 0 11 5 11 10 0 6 -2 10 -4 10 -3 0
-8 -4 -11 -10z"/>
<path d="M894 869 c-4 -7 -3 -9 4 -5 5 3 13 0 15 -6 4 -9 6 -10 6 -1 1 17 -16
25 -25 12z"/>
<path d="M4185 851 c-3 -5 -2 -12 3 -15 5 -3 9 1 9 9 0 17 -3 19 -12 6z"/>
<path d="M4142 818 c-15 -15 -16 -28 -2 -28 6 0 9 6 8 13 -2 6 5 11 14 11 10
-1 15 2 12 7 -7 12 -18 11 -32 -3z"/>
<path d="M1070 719 c0 -5 5 -7 10 -4 6 3 10 8 10 11 0 2 -4 4 -10 4 -5 0 -10
-5 -10 -11z"/>
<path d="M1090 702 c0 -5 7 -9 15 -9 8 0 12 4 9 9 -3 4 -9 8 -15 8 -5 0 -9 -4
-9 -8z"/>
<path d="M3979 679 c-6 -11 -8 -23 -6 -26 3 -2 8 5 12 16 4 12 12 18 21 14 7
-3 14 -3 14 0 0 16 -31 13 -41 -4z"/>
<path d="M1141 674 c0 -11 3 -14 6 -6 3 7 2 16 -1 19 -3 4 -6 -2 -5 -13z"/>
<path d="M3945 671 c-3 -5 -2 -12 3 -15 5 -3 9 1 9 9 0 17 -3 19 -12 6z"/>
<path d="M3895 629 c-4 -6 -5 -12 -2 -15 2 -3 7 2 10 11 7 17 1 20 -8 4z"/>
<path d="M3861 611 c-8 -5 -9 -11 -3 -15 5 -3 12 1 16 9 6 17 6 18 -13 6z"/>
<path d="M1257 591 c-4 -17 -3 -21 5 -13 5 5 8 16 6 23 -3 8 -7 3 -11 -10z"/>
<path d="M3820 575 c-19 -22 -8 -25 13 -3 9 10 13 18 8 18 -5 0 -14 -7 -21
-15z"/>
<path d="M1315 560 c-4 -6 -1 -9 7 -8 7 2 12 -2 11 -8 -1 -6 5 -11 13 -11 11
0 11 4 -3 19 -19 21 -20 21 -28 8z"/>
<path d="M3775 540 c-3 -6 1 -7 9 -4 18 7 21 14 7 14 -6 0 -13 -4 -16 -10z"/>
<path d="M1396 521 c-3 -5 1 -12 10 -15 22 -8 25 -4 9 11 -8 7 -16 9 -19 4z"/>
<path d="M3707 503 c-3 -5 5 -8 18 -8 13 0 21 3 18 8 -2 4 -10 7 -18 7 -8 0
-16 -3 -18 -7z"/>
<path d="M1430 490 c-8 -5 -10 -10 -5 -10 6 0 17 5 25 10 8 5 11 10 5 10 -5 0
-17 -5 -25 -10z"/>
<path d="M1474 482 c3 -5 0 -13 -6 -15 -9 -4 -10 -6 -1 -6 17 -1 25 16 12 25
-7 4 -9 3 -5 -4z"/>
<path d="M1539 447 c7 -9 17 -15 21 -12 5 3 11 0 13 -5 3 -6 4 -5 3 2 -2 7 -7
13 -12 13 -5 0 -16 4 -24 10 -13 8 -13 7 -1 -8z"/>
<path d="M3538 428 c5 -5 16 -8 23 -6 8 3 3 7 -10 11 -17 4 -21 3 -13 -5z"/>
<path d="M1630 396 c7 -7 13 -7 20 0 6 6 3 10 -10 10 -13 0 -16 -4 -10 -10z"/>
<path d="M3408 373 c-10 -2 -18 -9 -18 -14 0 -6 8 -5 20 1 11 6 20 13 20 15 0
3 -1 4 -2 4 -2 -1 -11 -3 -20 -6z"/>
<path d="M1815 340 c3 -4 16 -10 30 -12 13 -3 22 -2 20 2 -3 4 -16 10 -30 12
-13 3 -22 2 -20 -2z"/>
<path d="M3257 322 c3 -7 9 -10 12 -5 3 4 10 11 15 15 4 4 -1 6 -12 5 -12 -1
-18 -6 -15 -15z"/>
<path d="M1790 326 c0 -2 7 -7 16 -10 8 -3 12 -2 9 4 -6 10 -25 14 -25 6z"/>
<path d="M1857 303 c-3 -5 8 -8 23 -8 15 0 26 3 23 8 -2 4 -13 7 -23 7 -10 0
-21 -3 -23 -7z"/>
<path d="M1950 290 c8 -5 20 -10 25 -10 6 0 3 5 -5 10 -8 5 -19 10 -25 10 -5
0 -3 -5 5 -10z"/>
<path d="M3100 285 c-7 -9 -8 -15 -2 -15 5 0 12 7 16 15 3 8 4 15 2 15 -2 0
-9 -7 -16 -15z"/>
<path d="M3010 276 c0 -2 7 -7 16 -10 8 -3 12 -2 9 4 -6 10 -25 14 -25 6z"/>
<path d="M2956 253 c-6 -14 -5 -15 5 -6 7 7 10 15 7 18 -3 3 -9 -2 -12 -12z"/>
<path d="M2185 250 c-3 -6 1 -7 9 -4 18 7 21 14 7 14 -6 0 -13 -4 -16 -10z"/>
<path d="M2991 251 c-8 -5 -9 -11 -3 -15 5 -3 12 1 16 9 6 17 6 18 -13 6z"/>
<path d="M2825 240 c-3 -5 -1 -10 4 -10 6 0 11 5 11 10 0 6 -2 10 -4 10 -3 0
-8 -4 -11 -10z"/>
<path d="M2415 230 c-3 -5 -1 -10 4 -10 6 0 11 5 11 10 0 6 -2 10 -4 10 -3 0
-8 -4 -11 -10z"/>
<path d="M2596 227 c-16 -12 -16 -13 2 -13 10 0 19 6 19 13 0 7 -1 13 -2 13
-1 0 -9 -6 -19 -13z"/>
<path d="M2687 223 c3 -7 6 -13 8 -13 2 0 5 6 8 13 3 8 -1 14 -8 14 -7 0 -11
-6 -8 -14z"/>
<path d="M2793 225 c0 -8 4 -15 9 -15 4 0 8 4 8 9 0 6 -4 12 -8 15 -5 3 -9 -1
-9 -9z"/>
<path d="M2457 209 c7 -7 15 -10 18 -7 3 3 -2 9 -12 12 -14 6 -15 5 -6 -5z"/>
</g>
</svg>
